<svg width="100" height="90" viewBox="0 0 100 90" fill="none" xmlns="http://www.w3.org/2000/svg">
<path d="M15.4568 80.8269C18.4991 80.8269 21.4185 79.7269 23.9672 77.6321C26.5167 79.7269 29.4365 80.8269 32.4788 80.8269C35.5212 80.8269 38.4409 79.7266 40.9893 77.6321C43.5386 79.7267 46.4589 80.8269 49.5009 80.8269C52.5428 80.8269 55.4624 79.727 58.0111 77.6334C60.5598 79.727 63.4795 80.8269 66.5212 80.8269C69.5635 80.8269 72.4831 79.7266 75.0315 77.632C77.5808 79.7266 80.5009 80.8269 83.5432 80.8269C84.9 80.8269 86 79.7249 86 78.3655C86 77.0062 84.9 75.9041 83.5432 75.9041C81.4077 75.9041 79.313 74.9824 77.4853 73.2381C76.1088 71.9253 73.9533 71.9256 72.5767 73.2389C70.7505 74.9824 68.6563 75.9041 66.5212 75.9041C64.3861 75.9041 62.2919 74.9827 60.4643 73.2394C59.0889 71.9277 56.9337 71.9276 55.5576 73.2397C53.7305 74.9827 51.6363 75.9041 49.5012 75.9041C47.3658 75.9041 45.2709 74.9823 43.4435 73.2385C42.0671 71.9252 39.9114 71.9255 38.5348 73.2388C36.7086 74.9823 34.6142 75.9039 32.4791 75.9039C30.3437 75.9039 28.2488 74.9821 26.4214 73.2384C25.0448 71.9249 22.8886 71.9253 21.5129 73.2387C19.686 74.9821 17.592 75.9038 15.4568 75.9038C14.1 75.9042 13 77.0063 13 78.3657C13 79.725 14.1 80.8269 15.4568 80.8269Z" fill="#266C7E"/>
<path d="M15.4568 80.8269C18.4991 80.8269 21.4185 79.7269 23.9672 77.6321C26.5167 79.7269 29.4365 80.8269 32.4788 80.8269C35.5212 80.8269 38.4409 79.7266 40.9893 77.6321C43.5386 79.7267 46.4589 80.8269 49.5009 80.8269C49.4999 80.7864 49.4999 75.8636 49.5009 75.9042C47.3655 75.9042 45.2706 74.9824 43.4432 73.2387C42.0668 71.9253 39.9111 71.9256 38.5346 73.2389C36.7083 74.9824 34.6139 75.9041 32.4788 75.9041C30.3435 75.9041 28.2486 74.9823 26.4211 73.2385C25.0445 71.925 22.8883 71.9254 21.5126 73.2388C19.6859 74.9823 17.5919 75.9039 15.4566 75.9039C14.1 75.9042 13 77.0063 13 78.3656C13 79.725 14.1 80.8269 15.4568 80.8269Z" fill="#57B0D1"/>
<path d="M15.4568 89.2669C18.4991 89.2669 21.4185 88.1669 23.9672 86.0721C26.5167 88.1669 29.4365 89.2669 32.4788 89.2669C35.5212 89.2669 38.4409 88.1666 40.9893 86.0721C43.5386 88.1667 46.4589 89.2669 49.5009 89.2669C52.5428 89.2669 55.4624 88.167 58.0111 86.0734C60.5598 88.167 63.4795 89.2669 66.5212 89.2669C69.5635 89.2669 72.4831 88.1666 75.0315 86.072C77.5808 88.1666 80.5009 89.2669 83.5432 89.2669C84.9 89.2669 86 88.1649 86 86.8055C86 85.4462 84.9 84.3441 83.5432 84.3441C81.4077 84.3441 79.313 83.4224 77.4853 81.6781C76.1088 80.3653 73.9533 80.3656 72.5767 81.6789C70.7505 83.4224 68.6563 84.3441 66.5212 84.3441C64.3861 84.3441 62.2919 83.4227 60.4643 81.6794C59.0889 80.3677 56.9337 80.3676 55.5576 81.6797C53.7305 83.4227 51.6363 84.3441 49.5012 84.3441C47.3658 84.3441 45.2709 83.4223 43.4435 81.6785C42.0671 80.3652 39.9114 80.3655 38.5348 81.6788C36.7086 83.4223 34.6142 84.3439 32.4791 84.3439C30.3437 84.3439 28.2488 83.4221 26.4214 81.6784C25.0448 80.3649 22.8886 80.3653 21.5129 81.6787C19.686 83.4221 17.592 84.3438 15.4568 84.3438C14.1 84.3442 13 85.4463 13 86.8057C13 88.165 14.1 89.2669 15.4568 89.2669Z" fill="#266C7E"/>
<path d="M15.4568 89.267C18.4991 89.267 21.4185 88.1669 23.9672 86.0722C26.5167 88.1669 29.4365 89.267 32.4788 89.267C35.5212 89.267 38.4409 88.1666 40.9893 86.0722C43.5386 88.1668 46.4589 89.267 49.5009 89.267C49.4999 89.2264 49.4999 84.3037 49.5009 84.3443C47.3655 84.3443 45.2706 83.4225 43.4432 81.6787C42.0668 80.3653 39.9111 80.3656 38.5346 81.679C36.7083 83.4225 34.6139 84.3441 32.4788 84.3441C30.3435 84.3441 28.2486 83.4223 26.4211 81.6786C25.0446 80.3651 22.8883 80.3655 21.5126 81.6788C19.6859 83.4223 17.5919 84.344 15.4566 84.344C14.1 84.3443 13 85.4463 13 86.8057C13 88.165 14.1 89.267 15.4568 89.267Z" fill="#57B0D1"/>
<path d="M0.147719 62.6491C0.471605 61.5154 1.09509 60.5033 2.01816 59.6126C2.95744 58.7219 3.97768 58.2199 5.07889 58.1065C6.1963 57.9932 7.25703 58.5357 8.26108 59.7341C9.18416 60.981 9.49995 62.3495 9.20845 63.8393C8.91695 65.3292 8.15582 66.4871 6.92505 67.313C6.11533 67.8636 5.28132 68.1551 4.42302 68.1875C3.56472 68.2037 2.7631 67.9527 2.01816 67.4345C1.25703 66.8677 0.690229 66.1551 0.317759 65.2968C-0.0385163 64.4385 -0.0951964 63.5559 0.147719 62.6491ZM2.67403 64.1308C2.83598 64.8596 3.11938 65.4426 3.52424 65.8798C3.94529 66.3171 4.46351 66.398 5.07889 66.1227C5.84003 65.7665 6.36634 65.1916 6.65784 64.398C6.96553 63.5883 7.01412 62.7462 6.80359 61.8717C6.69023 61.4345 6.37444 61.1268 5.85622 60.9486C5.338 60.7543 4.85217 60.7057 4.39873 60.8029C4.01007 60.8677 3.60521 61.3373 3.18416 62.2118C2.7631 63.0863 2.59306 63.726 2.67403 64.1308Z" fill="#476B77"/>
<path d="M9.77436 63.6693C9.46667 61.3697 9.31283 58.5195 9.31283 55.1187C9.31283 54.8434 9.46667 54.5924 9.77436 54.3657C10.0983 54.1389 10.4383 54.0175 10.7946 54.0013C11.2642 53.9851 11.5881 54.1227 11.7663 54.4142C11.9444 54.7057 12.0011 55.062 11.9363 55.4831C11.8877 55.9041 11.8634 56.3414 11.8634 56.7948C11.8634 57.2482 11.912 57.6288 12.0092 57.9365C12.1549 58.2604 12.5355 58.147 13.1509 57.5964C13.41 57.4345 13.7825 57.1106 14.2683 56.6248C14.7703 56.1227 15.1833 55.8069 15.5072 55.6774C15.831 55.564 16.1954 55.6612 16.6003 55.9689C17.0213 56.2604 17.1752 56.5438 17.0618 56.8191C16.6893 57.4669 15.9201 58.1227 14.7541 58.7867C13.5881 59.4345 12.8594 59.896 12.5679 60.1713C12.4707 60.2685 12.495 60.4547 12.6408 60.73C12.8027 61.0053 13.0294 61.3292 13.3209 61.7017C13.6124 62.0742 13.7906 62.3171 13.8553 62.4304C14.0173 62.6086 14.4383 63.0215 15.1185 63.6693C15.7987 64.3009 16.3169 64.8515 16.6731 65.3211C17.0294 65.7908 17.2723 66.2847 17.4019 66.8029C17.4505 66.981 17.3452 67.1673 17.0861 67.3616C16.827 67.5559 16.5274 67.6693 16.1873 67.7017C15.8634 67.7341 15.5557 67.6531 15.2642 67.4588C14.8756 67.1349 14.2602 66.4304 13.4181 65.3454C12.576 64.2442 12.1306 63.6612 12.0821 63.5964C11.9039 64.4871 12.1225 66.1308 12.7379 68.5276C12.8027 68.7381 12.827 69.0134 12.8108 69.3535C12.7946 69.6936 12.7379 69.9365 12.6408 70.0823C12.4788 70.4223 12.2359 70.6329 11.912 70.7138C11.6043 70.811 11.2804 70.7705 10.9404 70.5924C10.8108 70.5438 10.6812 70.4385 10.5517 70.2766C10.4383 70.1308 10.3817 69.977 10.3817 69.815C10.3817 68.8272 10.1792 66.7786 9.77436 63.6693Z" fill="#476B77"/>
<path d="M18.3646 60.2928C18.3646 60.0499 18.3161 59.6855 18.2189 59.1997C18.1217 58.6976 18.0731 58.2604 18.0731 57.8879C18.0731 57.5154 18.1703 57.1916 18.3646 56.9163C19.0448 55.9284 20.065 55.3778 21.4254 55.2644C22.7857 55.1349 23.9679 55.4669 24.9719 56.2604C25.1986 56.4223 25.2229 56.6572 25.0448 56.9648C24.8667 57.2563 24.5833 57.4345 24.1946 57.4993C23.9193 57.5316 23.4335 57.4588 22.7371 57.2806C22.0569 57.1025 21.5306 57.0944 21.1582 57.2563C20.8019 57.4183 20.5914 57.7179 20.5266 58.1551C20.478 58.5924 20.4942 59.0296 20.5752 59.4669C20.6723 59.8879 20.6399 60.309 20.478 60.73C20.7857 60.9082 21.1744 61.0053 21.644 61.0215C22.1298 61.0215 22.559 60.9972 22.9314 60.9486C23.3039 60.8839 23.6683 60.9325 24.0246 61.0944C24.397 61.2401 24.6723 61.5316 24.8505 61.9689C24.5914 62.4223 24.1946 62.6895 23.6602 62.7705C23.1258 62.8515 22.5752 62.9001 22.0084 62.9163C21.4578 62.9325 21.061 63.0701 20.8181 63.3292C20.6399 63.5235 20.5185 63.7908 20.4537 64.1308C20.3889 64.4709 20.3565 64.7543 20.3565 64.981C20.3727 65.2078 20.4132 65.5883 20.478 66.1227C20.5428 66.6572 20.5833 66.9891 20.5995 67.1187C21.1339 67.2159 21.6764 67.1916 22.227 67.0458C22.7938 66.9001 23.4092 66.6814 24.0731 66.3899C24.7533 66.0823 25.2796 65.8798 25.6521 65.7827C25.7007 65.7341 25.8464 65.8069 26.0893 66.0013C26.2027 66.3899 26.1865 66.7381 26.0408 67.0458C25.895 67.3535 25.6521 67.5721 25.312 67.7017C25.0205 67.7989 24.5914 67.9608 24.0246 68.1875C23.4739 68.4142 23.0286 68.5924 22.6885 68.7219C22.3484 68.8353 21.9274 68.9406 21.4254 69.0377C20.9395 69.1349 20.478 69.1754 20.0407 69.1592C19.9274 69.143 19.7331 69.1349 19.4578 69.1349C19.1986 69.1187 18.9962 69.0863 18.8505 69.0377C18.7047 68.9729 18.6156 68.8596 18.5833 68.6976C18.3889 68.0823 18.3161 67.1916 18.3646 66.0256C18.4294 64.8434 18.3889 63.9446 18.2432 63.3292C18.227 63.2482 18.1541 63.1187 18.0246 62.9406C17.9112 62.7624 17.8383 62.6248 17.8059 62.5276C17.7897 62.4304 17.8221 62.2847 17.9031 62.0903C17.9031 62.058 17.9193 62.0256 17.9517 61.9932C18.0003 61.9446 18.0488 61.9041 18.0974 61.8717C18.1622 61.8231 18.2108 61.7827 18.2432 61.7503C18.2918 61.6369 18.3242 61.5154 18.3403 61.3859C18.3727 61.2401 18.3889 61.1187 18.3889 61.0215C18.3889 60.9244 18.3808 60.7948 18.3646 60.6329C18.3646 60.4709 18.3646 60.3576 18.3646 60.2928Z" fill="#476B77"/>
<path d="M29.2078 58.7867C29.2887 58.5276 29.4426 57.8555 29.6693 56.7705C29.9122 55.6693 30.2037 54.8839 30.5438 54.4142C30.6733 54.2199 30.9405 54.0903 31.3454 54.0256C31.7665 53.9608 32.0418 54.0499 32.1713 54.2928C32.479 54.9406 32.7624 55.6612 33.0215 56.4547C33.2806 57.232 33.475 57.9203 33.6045 58.5195C33.7503 59.1025 33.9365 59.8798 34.1632 60.8515C34.3899 61.8069 34.5681 62.5438 34.6976 63.062C34.6976 63.1754 34.8029 63.2887 35.0134 63.4021C35.2401 63.5155 35.3859 63.6207 35.4507 63.7179C35.6126 63.9932 35.6126 64.2118 35.4507 64.3737C35.1754 64.9729 35.2159 65.7665 35.5721 66.7543C35.9284 67.7422 36.0742 68.4466 36.0094 68.8677C35.9608 69.2078 35.6936 69.4264 35.2078 69.5235C34.7381 69.6045 34.3818 69.4912 34.1389 69.1835C33.9122 68.8758 33.726 68.2604 33.5802 67.3373C33.4507 66.4142 33.1673 65.8231 32.73 65.564C32.2766 65.3049 31.7422 65.2159 31.1268 65.2968C30.5114 65.3616 29.9851 65.564 29.5478 65.9041C29.3535 66.0499 29.1916 66.3171 29.062 66.7057C28.9325 67.0782 28.8353 67.4507 28.7705 67.8231C28.7219 68.1794 28.6167 68.5276 28.4547 68.8677C28.309 69.2078 28.1065 69.4183 27.8474 69.4993C27.6045 69.564 27.2239 69.4993 26.7057 69.3049C26.6086 68.8515 26.6005 68.3818 26.6814 67.896C26.7786 67.4102 26.9324 66.8596 27.143 66.2442C27.3697 65.6126 27.5154 65.1349 27.5802 64.811C28.0822 62.5276 28.6248 60.5195 29.2078 58.7867ZM30.5438 60.9729C30.5114 61.1835 30.4385 61.4507 30.3252 61.7746C30.2118 62.0823 30.1065 62.3414 30.0094 62.5519C29.9284 62.7462 29.8798 62.9567 29.8636 63.1835C29.8474 63.4102 29.9203 63.5478 30.0822 63.5964C30.3576 63.7908 30.7867 63.8717 31.3697 63.8393C31.9527 63.8069 32.2928 63.6207 32.3899 63.2806C32.4547 63.0377 32.4871 62.7786 32.4871 62.5033C32.4871 62.2118 32.479 61.977 32.4628 61.7989C32.4466 61.6045 32.3737 61.3292 32.2442 60.9729C32.1146 60.6167 32.0256 60.3899 31.977 60.2928C31.9446 60.1794 31.8231 59.9122 31.6126 59.4912C31.4183 59.0539 31.313 58.8191 31.2968 58.7867C30.9244 59.2401 30.6733 59.9689 30.5438 60.9729Z" fill="#476B77"/>
<path d="M36.7222 63.1592C36.706 63.062 36.6655 62.892 36.6007 62.6491C36.5359 62.3899 36.5117 62.2118 36.5278 62.1146C36.544 62.0013 36.5926 61.7989 36.6736 61.5074C36.7546 61.1997 36.8112 60.9648 36.8436 60.8029C36.8598 60.4466 36.8355 59.8474 36.7708 59.0053C36.706 58.1632 36.6979 57.4507 36.7465 56.8677C36.7951 56.2685 36.957 55.726 37.2323 55.2401C37.3942 54.9648 37.6938 54.8029 38.1311 54.7543C38.5683 54.7057 38.9894 54.7786 39.3942 54.9729C39.8315 55.3454 40.0258 55.7098 39.9772 56.0661C39.9287 56.3414 39.8315 56.7462 39.6857 57.2806C39.5562 57.7989 39.4509 58.228 39.3699 58.5681C39.3052 58.9082 39.2809 59.2968 39.2971 59.7341C39.3133 60.1551 39.4104 60.5276 39.5886 60.8515C39.7667 61.0944 40.1473 61.2644 40.7303 61.3616C41.3133 61.4588 41.6695 61.3697 41.7991 61.0944C42.042 60.4304 42.1473 59.4831 42.1149 58.2523C42.0987 57.0215 42.1311 56.0337 42.2121 55.2887C42.2768 54.9163 42.4793 54.6491 42.8193 54.4871C43.1756 54.3252 43.5238 54.2766 43.8639 54.3414C44.2202 54.4061 44.4469 54.5519 44.544 54.7786C44.787 55.6855 44.9003 56.4142 44.8841 56.9648C44.8679 57.5154 44.8032 58.2766 44.6898 59.2482C44.5926 60.2199 44.5602 60.981 44.5926 61.5316C44.6088 61.645 44.7384 61.8393 44.9813 62.1146C45.2242 62.3737 45.3619 62.5924 45.3942 62.7705C45.4104 62.9163 45.3295 63.0782 45.1513 63.2563C44.9894 63.4183 44.9003 63.5235 44.8841 63.5721C44.7222 64.3818 44.7789 65.5478 45.0542 67.0701C45.3295 68.5924 45.4671 69.6207 45.4671 70.1551C44.8355 70.2847 44.3173 70.228 43.9125 69.9851C43.5076 69.7584 43.2161 69.3778 43.038 68.8434C42.8598 68.309 42.7222 67.7665 42.625 67.2159C42.544 66.6491 42.455 66.0256 42.3578 65.3454C42.2606 64.6491 42.1392 64.1146 41.9934 63.7422C41.8801 63.4183 41.6453 63.2078 41.289 63.1106C40.9327 63.0134 40.5926 63.0053 40.2687 63.0863C39.9448 63.1511 39.7505 63.2482 39.6857 63.3778C39.3295 63.7503 39.2647 64.6248 39.4914 66.0013C39.7343 67.3778 39.7505 68.3657 39.54 68.9648C38.9246 68.981 38.4226 68.8677 38.0339 68.6248C37.6453 68.3657 37.3699 68.0013 37.208 67.5316C37.0623 67.0458 36.9651 66.5843 36.9165 66.147C36.8679 65.6936 36.8355 65.1592 36.8193 64.5438C36.8031 63.9122 36.7708 63.4507 36.7222 63.1592Z" fill="#476B77"/>
<path d="M50.4025 66.6572C50.2243 66.6086 50.1191 66.4628 50.0867 66.2199C50.0543 65.9608 50.0786 65.7746 50.1595 65.6612C50.532 65.2725 51.0664 64.8515 51.7628 64.398C52.4753 63.9284 53.115 63.4669 53.6818 63.0134C54.2486 62.5438 54.6778 62.0256 54.9693 61.4588C54.451 60.8434 53.7709 59.9122 52.9288 58.6652C52.0867 57.4183 51.4146 56.4952 50.9126 55.896C50.6211 55.5397 50.5887 55.1754 50.8154 54.8029C51.0421 54.4304 51.3579 54.1956 51.7628 54.0984C52.1838 53.9851 52.532 53.9932 52.8073 54.1227C53.3741 54.5276 53.8842 55.0458 54.3377 55.6774C54.8073 56.309 55.2851 57.0539 55.7709 57.9122C56.2729 58.7705 56.6778 59.4102 56.9855 59.8312C57.3255 59.6207 57.7466 59.224 58.2486 58.641C58.7668 58.0418 59.196 57.6369 59.5361 57.4264C60.3296 57.0215 61.0421 56.9729 61.6737 57.2806C61.9004 57.5074 61.949 57.7665 61.8195 58.058C61.5442 58.5924 60.9531 59.2159 60.0462 59.9284C59.1555 60.6248 58.5644 61.1835 58.2729 61.6045C58.5158 62.0256 58.9126 62.6895 59.4632 63.5964C60.03 64.4871 60.5077 65.2725 60.8964 65.9527C61.2851 66.6329 61.6332 67.2887 61.9409 67.9203C62.0057 68.0499 62.0381 68.1713 62.0381 68.2847C62.0543 68.3818 62.03 68.479 61.9652 68.5762C61.9166 68.6733 61.868 68.7624 61.8195 68.8434C61.7709 68.9082 61.6818 68.9891 61.5523 69.0863C61.4227 69.1673 61.3255 69.232 61.2608 69.2806C61.196 69.313 61.0826 69.3697 60.9207 69.4507C60.6778 69.5802 60.4187 69.5964 60.1434 69.4993C59.8681 69.3859 59.6656 69.1997 59.5361 68.9406C58.9531 67.4345 57.8519 65.6207 56.2324 63.4993C55.86 63.7098 55.4065 64.0418 54.8721 64.4952C54.3377 64.9486 53.8762 65.3535 53.4875 65.7098C53.0988 66.0661 52.6211 66.3495 52.0543 66.56C51.5037 66.7705 50.9531 66.8029 50.4025 66.6572Z" fill="#476B77"/>
<path d="M63.0115 62.6491C63.3354 61.5154 63.9588 60.5033 64.8819 59.6126C65.8212 58.7219 66.8414 58.2199 67.9426 58.1065C69.06 57.9932 70.1208 58.5357 71.1248 59.7341C72.0479 60.981 72.3637 62.3495 72.0722 63.8393C71.7807 65.3292 71.0196 66.4871 69.7888 67.313C68.9791 67.8636 68.1451 68.1551 67.2868 68.1875C66.4285 68.2037 65.6268 67.9527 64.8819 67.4345C64.1208 66.8677 63.554 66.1551 63.1815 65.2968C62.8252 64.4385 62.7685 63.5559 63.0115 62.6491ZM65.5378 64.1308C65.6997 64.8596 65.9831 65.4426 66.388 65.8798C66.809 66.3171 67.3272 66.398 67.9426 66.1227C68.7038 65.7665 69.2301 65.1916 69.5216 64.398C69.8293 63.5883 69.8779 62.7462 69.6673 61.8717C69.554 61.4345 69.2382 61.1268 68.72 60.9486C68.2017 60.7543 67.7159 60.7057 67.2625 60.8029C66.8738 60.8677 66.469 61.3373 66.0479 62.2118C65.6268 63.0863 65.4568 63.726 65.5378 64.1308Z" fill="#476B77"/>
<path d="M80.2656 58.0823C79.8608 57.8393 79.4721 57.645 79.0996 57.4993C78.7272 57.3535 78.3952 57.2482 78.1037 57.1835C77.8122 57.1187 77.626 57.0539 77.545 56.9891C77.2859 56.7948 77.0673 56.7867 76.8891 56.9648C76.7272 57.1268 76.5895 57.3778 76.4762 57.7179C76.4276 57.8474 76.4033 58.058 76.4033 58.3495C76.4195 58.6248 76.4033 58.8272 76.3547 58.9567C77.2616 60.1389 77.877 60.7948 78.2009 60.9244C79.0268 61.2806 79.6826 61.7098 80.1685 62.2118C80.6705 62.7138 80.962 63.3049 81.043 63.9851C81.1725 65.2159 80.4033 66.4142 78.7353 67.5802C77.6341 68.3414 76.63 68.9163 75.7231 69.3049C74.8162 69.6936 73.9094 69.8312 73.0025 69.7179C72.7434 69.6855 72.5166 69.564 72.3223 69.3535C72.1442 69.143 72.1442 68.9163 72.3223 68.6733C72.4033 68.5438 72.5895 68.3818 72.881 68.1875C73.1725 67.9932 73.3264 67.8555 73.3426 67.7746C73.4235 67.4831 73.4883 67.1754 73.5369 66.8515C73.6017 66.5276 73.6503 66.2361 73.6826 65.977C73.715 65.7179 73.7312 65.394 73.7312 65.0053C73.7474 64.6005 73.7555 64.3009 73.7555 64.1065C73.7717 63.896 73.7798 63.564 73.7798 63.1106C73.7798 62.6572 73.7798 62.3495 73.7798 62.1875C73.7798 62.0742 73.7555 61.9122 73.7069 61.7017C73.6745 61.4912 73.6422 61.313 73.6098 61.1673C73.5936 61.0053 73.6017 60.8272 73.6341 60.6329C73.6826 60.4223 73.7879 60.2523 73.9498 60.1227C74.128 59.977 74.2009 59.5721 74.1685 58.9082C74.1361 58.5519 74.1766 58.2199 74.2899 57.9122C74.4195 57.6045 74.4924 57.2887 74.5086 56.9648C74.5409 56.6248 74.4438 56.3576 74.2171 56.1632C74.1685 56.1146 74.0227 56.058 73.7798 55.9932C73.5531 55.9284 73.4073 55.8312 73.3426 55.7017C73.1806 55.2968 73.2616 54.9406 73.5855 54.6329C73.9094 54.309 74.1928 54.1713 74.4357 54.2199C74.5976 54.2361 74.881 54.2766 75.2859 54.3414C75.7069 54.4061 76.0227 54.4628 76.2332 54.5114C76.46 54.5438 76.7353 54.6086 77.0592 54.7057C77.3992 54.7867 77.6907 54.892 77.9337 55.0215C78.1928 55.1511 78.4276 55.3049 78.6381 55.4831C78.7677 55.5802 79.3264 55.7665 80.3142 56.0418C81.3021 56.3171 81.8527 56.8596 81.966 57.6693C81.8851 58.0742 81.7555 58.3333 81.5774 58.4466C81.4154 58.5438 81.2616 58.5681 81.1158 58.5195C80.9701 58.4709 80.6867 58.3252 80.2656 58.0823ZM76.2818 64.1551C76.2818 64.2847 76.2656 64.5357 76.2332 64.9082C76.2171 65.2806 76.209 65.5964 76.209 65.8555C76.209 66.0984 76.2413 66.3414 76.3061 66.5843C76.3871 66.5357 76.6381 66.398 77.0592 66.1713C77.4802 65.9284 77.7636 65.7584 77.9094 65.6612C78.0713 65.5478 78.2818 65.3859 78.5409 65.1754C78.8 64.9486 78.9782 64.7057 79.0754 64.4466C79.1887 64.1875 79.2373 63.9122 79.2211 63.6207C79.2211 63.2806 79.043 62.9244 78.6867 62.5519C78.3466 62.1794 77.9741 61.9284 77.5693 61.7989C77.1806 61.6693 76.8243 61.6936 76.5005 61.8717C76.3709 62.1308 76.298 62.3333 76.2818 62.479C76.2656 62.6248 76.2656 62.9001 76.2818 63.3049C76.298 63.6936 76.298 63.977 76.2818 64.1551Z" fill="#476B77"/>
<path d="M90.2052 58.0823C89.8004 57.8393 89.4117 57.645 89.0392 57.4993C88.6668 57.3535 88.3348 57.2482 88.0433 57.1835C87.7518 57.1187 87.5656 57.0539 87.4846 56.9891C87.2255 56.7948 87.0069 56.7867 86.8287 56.9648C86.6668 57.1268 86.5291 57.3778 86.4158 57.7179C86.3672 57.8474 86.3429 58.058 86.3429 58.3495C86.3591 58.6248 86.3429 58.8272 86.2943 58.9567C87.2012 60.1389 87.8166 60.7948 88.1404 60.9244C88.9664 61.2806 89.6222 61.7098 90.1081 62.2118C90.6101 62.7138 90.9016 63.3049 90.9826 63.9851C91.1121 65.2159 90.3429 66.4142 88.6749 67.5802C87.5736 68.3414 86.5696 68.9163 85.6627 69.3049C84.7558 69.6936 83.849 69.8312 82.9421 69.7179C82.683 69.6855 82.4562 69.564 82.2619 69.3535C82.0838 69.143 82.0838 68.9163 82.2619 68.6733C82.3429 68.5438 82.5291 68.3818 82.8206 68.1875C83.1121 67.9932 83.266 67.8555 83.2822 67.7746C83.3631 67.4831 83.4279 67.1754 83.4765 66.8515C83.5413 66.5276 83.5898 66.2361 83.6222 65.977C83.6546 65.7179 83.6708 65.394 83.6708 65.0053C83.687 64.6005 83.6951 64.3009 83.6951 64.1065C83.7113 63.896 83.7194 63.564 83.7194 63.1106C83.7194 62.6572 83.7194 62.3495 83.7194 62.1875C83.7194 62.0742 83.6951 61.9122 83.6465 61.7017C83.6141 61.4912 83.5817 61.313 83.5494 61.1673C83.5332 61.0053 83.5413 60.8272 83.5736 60.6329C83.6222 60.4223 83.7275 60.2523 83.8894 60.1227C84.0676 59.977 84.1404 59.5721 84.1081 58.9082C84.0757 58.5519 84.1162 58.2199 84.2295 57.9122C84.3591 57.6045 84.4319 57.2887 84.4481 56.9648C84.4805 56.6248 84.3834 56.3576 84.1566 56.1632C84.1081 56.1146 83.9623 56.058 83.7194 55.9932C83.4927 55.9284 83.3469 55.8312 83.2822 55.7017C83.1202 55.2968 83.2012 54.9406 83.5251 54.6329C83.849 54.309 84.1323 54.1713 84.3753 54.2199C84.5372 54.2361 84.8206 54.2766 85.2255 54.3414C85.6465 54.4061 85.9623 54.4628 86.1728 54.5114C86.3996 54.5438 86.6749 54.6086 86.9987 54.7057C87.3388 54.7867 87.6303 54.892 87.8732 55.0215C88.1323 55.1511 88.3672 55.3049 88.5777 55.4831C88.7073 55.5802 89.266 55.7665 90.2538 56.0418C91.2417 56.3171 91.7923 56.8596 91.9056 57.6693C91.8247 58.0742 91.6951 58.3333 91.517 58.4466C91.355 58.5438 91.2012 58.5681 91.0554 58.5195C90.9097 58.4709 90.6263 58.3252 90.2052 58.0823ZM86.2214 64.1551C86.2214 64.2847 86.2052 64.5357 86.1728 64.9082C86.1566 65.2806 86.1485 65.5964 86.1485 65.8555C86.1485 66.0984 86.1809 66.3414 86.2457 66.5843C86.3267 66.5357 86.5777 66.398 86.9987 66.1713C87.4198 65.9284 87.7032 65.7584 87.8489 65.6612C88.0109 65.5478 88.2214 65.3859 88.4805 65.1754C88.7396 64.9486 88.9178 64.7057 89.0149 64.4466C89.1283 64.1875 89.1769 63.9122 89.1607 63.6207C89.1607 63.2806 88.9826 62.9244 88.6263 62.5519C88.2862 62.1794 87.9137 61.9284 87.5089 61.7989C87.1202 61.6693 86.7639 61.6936 86.44 61.8717C86.3105 62.1308 86.2376 62.3333 86.2214 62.479C86.2052 62.6248 86.2052 62.9001 86.2214 63.3049C86.2376 63.6936 86.2376 63.977 86.2214 64.1551Z" fill="#476B77"/>
<path d="M99.5861 68.4304C99.2784 68.7543 98.8897 68.9001 98.4201 68.8677C97.9505 68.8191 97.6752 68.641 97.5942 68.3333C97.4647 67.7665 97.4161 66.9729 97.4485 65.9527C97.4808 64.9163 97.3918 64.1146 97.1813 63.5478C97.0841 63.726 96.914 64.0499 96.6711 64.5195C96.4444 64.9729 96.2582 65.3292 96.1124 65.5883C95.9829 65.8474 95.8047 66.1551 95.578 66.5114C95.3513 66.8677 95.1246 67.1754 94.8979 67.4345C94.6873 67.6612 94.3877 67.7665 93.9991 67.7503C93.6104 67.7179 93.3108 67.5802 93.1003 67.3373C92.4363 66.6733 92.1043 65.5074 92.1043 63.8393C92.1043 63.726 92.1043 63.5478 92.1043 63.3049C92.1043 62.1713 92.1124 61.3049 92.1286 60.7057C92.1448 60.0903 92.2258 59.313 92.3715 58.3737C92.5173 57.4345 92.7278 56.6005 93.0031 55.8717C93.1165 55.564 93.4323 55.4345 93.9505 55.4831C94.4687 55.5316 94.7521 55.726 94.8007 56.0661C94.914 56.7624 94.825 57.7584 94.5335 59.0539C94.242 60.3333 94.0962 61.232 94.0962 61.7503C94.0962 61.8636 94.08 62.1632 94.0477 62.6491C94.0315 63.1349 94.0396 63.5316 94.0719 63.8393C94.1043 64.1308 94.1772 64.4304 94.2906 64.7381C94.7926 64.0742 95.3108 62.9648 95.8452 61.4102C96.3796 59.8393 96.8979 58.7219 97.3999 58.058C97.5618 57.896 97.8533 57.815 98.2744 57.815C98.6954 57.815 98.9302 57.9284 98.9788 58.1551C99.2379 59.4021 99.408 61.1511 99.4889 63.4021C99.5861 65.6531 99.6833 67.1592 99.7804 67.9203C99.7804 68.1146 99.7157 68.2847 99.5861 68.4304Z" fill="#476B77"/>
<path d="M61.7775 40.5869C61.6754 38.0162 59.5602 35.9364 56.9882 35.8779C55.3095 35.8394 53.8199 36.6422 52.9068 37.8924C52.5105 38.4352 51.7196 38.4892 51.2405 38.0182L48.6802 35.5008C47.711 34.5478 47.6978 32.9898 48.6508 32.0206L51.1682 29.4603C51.6392 28.9812 52.4308 29.0217 52.8363 29.5578C53.7705 30.7924 55.2734 31.5699 56.9512 31.503C59.5219 31.401 61.6017 29.2857 61.6602 26.7138C61.6987 25.0351 60.896 23.5456 59.6457 22.6323C59.1029 22.2361 59.0489 21.4451 59.52 20.9661L62.0375 18.4056C62.9905 17.4363 64.5485 17.4232 65.5178 18.3761L68.078 20.8935C68.5571 21.3645 69.3486 21.31 69.7449 20.7672C70.6575 19.5175 72.1476 18.7142 73.8263 18.7527C76.3983 18.8113 78.5136 20.891 78.6155 23.4617C78.6825 25.1395 77.9044 26.643 76.6704 27.5765C76.1343 27.982 76.0932 28.7743 76.5723 29.2453L79.1326 31.7627C80.1019 32.7157 80.115 34.2737 79.162 35.2429L76.6447 37.8032C76.1737 38.2823 76.2282 39.0737 76.771 39.4701C78.0206 40.3827 78.824 41.8728 78.7855 43.5515C78.727 46.1235 76.6472 48.2388 74.0766 48.3408C72.3987 48.4076 70.8953 47.6296 69.9617 46.3956C69.5563 45.8596 68.7639 45.8184 68.2929 46.2975L65.7756 48.8577C64.8226 49.8269 63.2646 49.8401 62.2953 48.8871L59.7351 46.3698C59.256 45.8988 59.2965 45.1071 59.8326 44.7017C61.0669 43.7676 61.8444 42.2647 61.7775 40.5869Z" fill="url(#paint0_linear_45_1840)"/>
<path d="M73.8269 18.7525C72.1482 18.7139 70.6582 19.5173 69.7455 20.767C69.3491 21.3098 68.5576 21.3643 68.0786 20.8933L65.5183 18.376C64.5491 17.423 62.9911 17.4362 62.0381 18.4054L59.5207 20.9657C59.0497 21.4447 59.1036 22.2356 59.6464 22.6319C60.8967 23.5452 61.6994 25.0346 61.6609 26.7134C61.6024 29.2854 59.5226 31.4007 56.952 31.5026C55.2742 31.5696 53.7714 30.7921 52.8371 29.5574C52.4317 29.0214 51.6399 28.9809 51.1689 29.4599L48.6516 32.0202C47.6986 32.9894 47.7118 34.5475 48.681 35.5004L51.2413 38.0178C51.7203 38.4888 52.5112 38.4349 52.9075 37.8921C53.8208 36.6419 55.3102 35.8391 56.989 35.8776C57.7837 35.8957 58.5344 36.1071 59.1959 36.466L76.0338 19.3409C75.3722 18.9821 74.6214 18.7706 73.8269 18.7525Z" fill="url(#paint1_linear_45_1840)"/>
<path d="M44.6543 23.7506C44.5523 21.1799 42.4371 19.1001 39.8651 19.0416C38.1864 19.0031 36.6968 19.8059 35.7836 21.0562C35.3874 21.5989 34.5964 21.6529 34.1174 21.1819L31.5571 18.6645C30.5879 17.7115 30.5747 16.1535 31.5277 15.1843L34.045 12.624C34.5161 12.1449 35.3077 12.1855 35.7132 12.7215C36.6474 13.9561 38.1502 14.7336 39.8281 14.6667C42.3987 14.5647 44.4786 12.4495 44.5371 9.87747C44.5756 8.19879 43.7728 6.70932 42.5225 5.79602C41.9798 5.39976 41.9258 4.60881 42.3968 4.12976L44.9144 1.56927C45.8674 0.600027 47.4254 0.586854 48.3947 1.53984L50.9549 4.05717C51.434 4.52819 52.2255 4.47369 52.6218 3.93086C53.5344 2.68125 55.0245 1.87786 56.7032 1.91642C59.2752 1.975 61.3904 4.05474 61.4924 6.62536C61.5594 8.30316 60.7813 9.80675 59.5473 10.7402C59.0112 11.1457 58.9701 11.938 59.4492 12.409L62.0094 14.9263C62.9787 15.8793 62.9918 17.4373 62.0388 18.4066L59.5215 20.9668C59.0505 21.4459 59.105 22.2374 59.6478 22.6337C60.8974 23.5463 61.7008 25.0364 61.6623 26.7152C61.6038 29.2871 59.524 31.4024 56.9534 31.5044C55.2755 31.5713 53.7721 30.7932 52.8385 29.5592C52.4331 29.0232 51.6407 28.982 51.1697 29.4611L48.6524 32.0213C47.6994 32.9906 46.1414 33.0038 45.1721 32.0508L42.6119 29.5334C42.1328 29.0624 42.1733 28.2707 42.7094 27.8653C43.9438 26.9314 44.7213 25.4284 44.6543 23.7506Z" fill="url(#paint2_linear_45_1840)"/>
<path d="M27.8167 40.8752C27.7146 38.3045 25.5994 36.2247 23.0274 36.1662C21.3488 36.1277 19.8591 36.9304 18.946 38.1807C18.5497 38.7235 17.7588 38.7775 17.2797 38.3064L14.7195 35.7891C13.7502 34.8361 13.7371 33.2781 14.69 32.3088L17.2074 29.7486C17.6784 29.2695 18.4701 29.31 18.8755 29.8461C19.8098 31.0807 21.3126 31.8582 22.9904 31.7913C25.5611 31.6893 27.6409 29.574 27.6994 27.0021C27.738 25.3234 26.9352 23.8339 25.6849 22.9206C25.1421 22.5243 25.0882 21.7334 25.5592 21.2543L28.0765 18.6941C29.0295 17.7248 30.5875 17.7117 31.5568 18.6647L34.117 21.182C34.5961 21.653 35.3876 21.5985 35.7839 21.0557C36.6965 19.8061 38.1866 19.0027 39.8653 19.0412C42.4373 19.0998 44.5525 21.1796 44.6545 23.7502C44.7215 25.428 43.9434 26.9316 42.7094 27.865C42.1733 28.2705 42.1322 29.0628 42.6113 29.5338L45.1715 32.0511C46.1408 33.0041 46.1539 34.5622 45.201 35.5314L42.6836 38.0917C42.2126 38.5707 42.2671 39.3622 42.8099 39.7585C44.0595 40.6711 44.8629 42.1612 44.8245 43.84C44.766 46.4119 42.6861 48.5272 40.1155 48.6292C38.4376 48.6961 36.9342 47.918 36.0006 46.684C35.5952 46.148 34.8028 46.1068 34.3318 46.5859L31.8145 49.1462C30.8615 50.1154 29.3035 50.1286 28.3342 49.1756L25.774 46.6582C25.2949 46.1872 25.3354 45.3956 25.8715 44.9901C27.1062 44.0559 27.8836 42.553 27.8167 40.8752Z" fill="url(#paint3_linear_45_1840)"/>
<path d="M17.2075 29.7486L14.6901 32.3088C13.7372 33.2781 13.7504 34.8362 14.7196 35.7891L17.2798 38.3064C17.7589 38.7774 18.5498 38.7235 18.9461 38.1807C19.8593 36.9305 21.3488 36.1277 23.0275 36.1662C25.5995 36.2247 27.7148 38.3045 27.8168 40.8751C27.8562 41.8635 27.6008 42.79 27.1335 43.5764L44.815 43.4272C44.7248 41.9188 43.9562 40.5956 42.8102 39.7586C42.2674 39.3624 42.2129 38.5708 42.6839 38.0918L45.2012 35.5315C46.1542 34.5623 46.141 33.0042 45.1718 32.0513L42.6115 29.5339C42.1325 29.0629 42.1736 28.2706 42.7096 27.8652C43.8398 27.0101 44.5854 25.6765 44.6518 24.1694L26.9743 24.3188C27.4527 25.0959 27.7221 26.0157 27.6995 27.002C27.641 29.574 25.5612 31.6893 22.9905 31.7913C21.3128 31.8582 19.8098 31.0807 18.8756 29.8461C18.4702 29.31 17.6785 29.2695 17.2075 29.7486Z" fill="url(#paint4_linear_45_1840)"/>
<path d="M40.0009 18.9033C38.3222 18.8647 36.8321 19.6681 35.9194 20.9178C35.5231 21.4606 34.7316 21.5151 34.2525 21.0441L31.6923 18.5268C30.723 17.5738 29.165 17.5869 28.212 18.5562L25.6947 21.1164C25.2237 21.5955 25.2776 22.3864 25.8204 22.7827C27.0706 23.6959 27.8734 25.1854 27.8349 26.8642C27.7764 29.4361 25.6966 31.5514 23.126 31.6534C21.4482 31.7203 19.9453 30.9429 19.011 29.7082C18.6056 29.1722 17.8139 29.1316 17.3429 29.6107L14.8255 32.1709C13.8726 33.1402 13.8857 34.6982 14.855 35.6512L17.4152 38.1685C17.8943 38.6396 18.6852 38.5857 19.0815 38.0428C19.9947 36.7926 21.4842 35.9898 23.1629 36.0283C23.9576 36.0464 24.7083 36.2579 25.3699 36.6168L42.2078 19.4917C41.5463 19.1328 40.7955 18.9214 40.0009 18.9033Z" fill="url(#paint5_linear_45_1840)"/>
<path d="M70.0596 21.4897C71.5171 21.6054 73.0457 21.0868 74.0951 19.975C76.8794 17.0253 76.5949 13.9512 76.2491 11.3769C75.9399 10.2405 75.4217 9.32036 75.098 8.75713C74.9701 8.53446 74.6529 8.53043 74.5172 8.74833C74.0583 9.48483 72.6856 10.8922 68.582 12.614C67.4499 13.089 66.392 14.7907 66.2081 16.6274C66.3955 17.5947 67.0708 18.9195 67.435 19.7158L70.0596 21.4897Z" fill="#ABCAD6"/>
<path d="M74.4826 20.2363C73.4334 21.3475 72.0477 21.9636 70.5901 21.8481L66.5895 19.1433C66.226 18.3468 66.1238 17.4732 66.2091 16.6275L68.5542 18.2121C70.2469 19.3573 72.5334 19.1453 73.9474 17.6697C73.9591 17.6593 73.9692 17.649 73.9787 17.6371C75.8905 15.6116 76.3769 13.3707 76.25 11.3771C77.0226 13.8178 77.2922 17.2602 74.4826 20.2363Z" fill="#476B77"/>
<path d="M72.5294 17.5423C72.8161 17.1045 72.6973 16.5185 72.2651 16.2265C72.2613 16.2239 72.2573 16.2212 72.2532 16.2186C71.8114 15.9292 71.2188 16.053 70.9295 16.4948C69.6687 18.4206 68.7222 18.9998 67.8875 19.3389C67.8794 19.3422 67.8716 19.3455 67.8637 19.3489L66.078 20.1307C65.5942 20.3425 65.3738 20.9063 65.5856 21.39C65.6608 21.562 65.7805 21.7005 65.9254 21.7984C66.188 21.9758 66.5332 22.0189 66.845 21.8824L68.6192 21.1056C70.128 20.4896 71.2981 19.4232 72.5294 17.5423Z" fill="#476B77"/>
<path d="M71.5325 18.9029C70.7838 19.797 70.0163 20.4249 69.142 20.8696C68.9721 20.9548 68.7991 21.0332 68.6205 21.1064L66.8462 21.8832C66.5346 22.0188 66.1894 21.9763 65.9263 21.7985C65.7816 21.7008 65.662 21.5614 65.5866 21.3905C65.3753 20.9061 65.5959 20.3428 66.0792 20.1309L67.2762 19.6072L67.8643 19.3492C67.8728 19.3457 67.8803 19.3415 67.888 19.3391C68.2883 19.1772 68.7136 18.9599 69.1863 18.5654C69.9322 18.9031 70.7476 19.0126 71.5325 18.9029Z" fill="#476B77"/>
<path d="M64.9687 31.1681L49.8819 50.7849C49.5626 51.1938 49.1108 51.4455 48.6323 51.5207C48.152 51.5963 47.6431 51.4954 47.6431 51.4954C46.7812 50.913 46.5182 49.7629 47.0383 48.8635L59.4446 27.4355C60.0873 26.325 60.8084 25.2645 61.6011 24.2598L65.2773 25.868L67.1104 27.9824C66.4742 29.0927 65.7593 30.1575 64.9687 31.1681Z" fill="#D6E5EA"/>
<path d="M67.2972 28.1086L61.6015 24.26C62.386 23.2653 63.2419 22.3265 64.1624 21.4514L66.5889 19.1445L68.5897 20.4964L70.0937 22.0411L69.0251 24.7372C68.5566 25.9176 67.2972 28.1086 67.2972 28.1086Z" fill="#FFA660"/>
<path d="M65.5625 31.5696L50.3104 51.0747C49.991 51.4836 49.5393 51.7353 49.0607 51.8105C48.5804 51.886 48.0736 51.7866 47.6427 51.4954L64.6524 26.3218L66.6149 26.7721L67.7041 28.3838C67.0679 29.4941 66.353 30.559 65.5625 31.5696Z" fill="#ABCAD6"/>
<path d="M67.7043 28.3841L64.6525 26.322L68.5889 20.4964L70.5896 21.8482L69.3546 24.9603C68.8861 26.1407 68.3345 27.2851 67.7043 28.3841Z" fill="#FFB575"/>
<defs>
<linearGradient id="paint0_linear_45_1840" x1="54.3829" y1="38.2485" x2="71.9353" y2="34.6213" gradientUnits="userSpaceOnUse">
<stop stop-color="#266C7E"/>
<stop offset="1" stop-color="#57B0D1"/>
</linearGradient>
<linearGradient id="paint1_linear_45_1840" x1="63.5185" y1="28.5624" x2="57.5131" y2="22.6577" gradientUnits="userSpaceOnUse">
<stop stop-color="#2F73A0" stop-opacity="0"/>
<stop offset="1" stop-color="#2F73A0"/>
</linearGradient>
<linearGradient id="paint2_linear_45_1840" x1="37.2598" y1="21.4122" x2="54.8121" y2="17.785" gradientUnits="userSpaceOnUse">
<stop stop-color="#266C7E"/>
<stop offset="1" stop-color="#57B0D1"/>
</linearGradient>
<linearGradient id="paint3_linear_45_1840" x1="20.4221" y1="38.5367" x2="37.9743" y2="34.9096" gradientUnits="userSpaceOnUse">
<stop stop-color="#266C7E"/>
<stop offset="1" stop-color="#57B0D1"/>
</linearGradient>
<linearGradient id="paint4_linear_45_1840" x1="33.4431" y1="33.8936" x2="52.8513" y2="33.7295" gradientUnits="userSpaceOnUse">
<stop stop-color="#843561" stop-opacity="0"/>
<stop offset="1" stop-color="#3A2F4D"/>
</linearGradient>
<linearGradient id="paint5_linear_45_1840" x1="27.8164" y1="26.8687" x2="21.9259" y2="21.0769" gradientUnits="userSpaceOnUse">
<stop stop-color="#843561" stop-opacity="0"/>
<stop offset="1" stop-color="#3A2F4D"/>
</linearGradient>
</defs>
</svg>
